<svg xmlns="http://www.w3.org/2000/svg" width="16" height="16" viewBox="0 0 16 16"><defs><style>.a{fill:#fff;}</style></defs><path class="a" d="M17.458,18.564l-6.64,6.64a.791.791,0,0,1-.537.238.73.73,0,0,1-.569-.238.785.785,0,0,1-.253-.569.688.688,0,0,1,.253-.537l6.64-6.64-6.64-6.64a.791.791,0,0,1-.238-.537.73.73,0,0,1,.238-.569.785.785,0,0,1,.569-.253.688.688,0,0,1,.537.253l6.64,6.64,6.64-6.64a.791.791,0,0,1,.537-.238.729.729,0,0,1,.569.238.785.785,0,0,1,.253.569.688.688,0,0,1-.253.537l-6.64,6.64L25.2,24.1a.791.791,0,0,1,.238.537.73.73,0,0,1-.238.569.785.785,0,0,1-.569.253A.688.688,0,0,1,24.1,25.2Z" transform="translate(-9.458 -9.458)"/></svg>