<svg xmlns="http://www.w3.org/2000/svg" width="19.2" height="24" viewBox="0 0 19.2 24"><path d="M165.67-861.1h7.86a.868.868,0,0,0,.641-.26.879.879,0,0,0,.259-.645.861.861,0,0,0-.259-.64.877.877,0,0,0-.641-.255h-7.86a.868.868,0,0,0-.641.26.879.879,0,0,0-.259.645.861.861,0,0,0,.259.64A.877.877,0,0,0,165.67-861.1Zm0-5.1h7.86a.868.868,0,0,0,.641-.26.879.879,0,0,0,.259-.645.861.861,0,0,0-.259-.64.877.877,0,0,0-.641-.255h-7.86a.868.868,0,0,0-.641.26.879.879,0,0,0-.259.645.861.861,0,0,0,.259.64A.878.878,0,0,0,165.67-866.2ZM161.8-856a1.727,1.727,0,0,1-1.26-.54,1.727,1.727,0,0,1-.54-1.26v-20.4a1.727,1.727,0,0,1,.54-1.26,1.727,1.727,0,0,1,1.26-.54h10.08a1.737,1.737,0,0,1,.712.15,1.891,1.891,0,0,1,.578.39l5.49,5.49a1.893,1.893,0,0,1,.39.578,1.736,1.736,0,0,1,.15.712v14.88a1.727,1.727,0,0,1-.54,1.26,1.726,1.726,0,0,1-1.26.54Zm9.93-17.52v-4.68H161.8v20.4h15.6v-14.82h-4.77a.871.871,0,0,1-.641-.259A.871.871,0,0,1,171.73-873.52Zm-9.93-4.68v0Z" transform="translate(-160 880)"/></svg>