<svg xmlns="http://www.w3.org/2000/svg" width="15.875" height="10.583" viewBox="0 0 15.875 10.583"><defs><style>.a{fill:#b7b7b7;}</style></defs><path class="a" d="M126.835-709.417a.638.638,0,0,1-.471-.191.646.646,0,0,1-.19-.474.633.633,0,0,1,.19-.47.645.645,0,0,1,.471-.187h2.2a.638.638,0,0,1,.471.191.646.646,0,0,1,.19.474.633.633,0,0,1-.19.47.645.645,0,0,1-.471.187Zm-6.174-9.26a.638.638,0,0,1-.471-.191.646.646,0,0,1-.19-.474.633.633,0,0,1,.19-.47.645.645,0,0,1,.471-.187h14.552a.638.638,0,0,1,.471.191.646.646,0,0,1,.19.474.633.633,0,0,1-.19.47.645.645,0,0,1-.471.187Zm2.646,4.63a.638.638,0,0,1-.471-.191.646.646,0,0,1-.19-.474.633.633,0,0,1,.19-.47.645.645,0,0,1,.471-.187h9.261a.638.638,0,0,1,.471.191.646.646,0,0,1,.19.474.633.633,0,0,1-.19.47.645.645,0,0,1-.471.187Z" transform="translate(-120 720)"/></svg>