<svg xmlns="http://www.w3.org/2000/svg" width="14.11" height="16.125" viewBox="0 0 14.11 16.125"><defs><style>.a{fill:#0a1a27;}</style></defs><path class="a" d="M13.732,15.118H13.1V.756A.756.756,0,0,0,12.346,0H1.764a.756.756,0,0,0-.756.756V15.118H.378A.378.378,0,0,0,0,15.5v.63H14.11V15.5A.378.378,0,0,0,13.732,15.118ZM4.031,2.394a.378.378,0,0,1,.378-.378h1.26a.378.378,0,0,1,.378.378v1.26a.378.378,0,0,1-.378.378H4.409a.378.378,0,0,1-.378-.378Zm0,3.024a.378.378,0,0,1,.378-.378h1.26a.378.378,0,0,1,.378.378v1.26a.378.378,0,0,1-.378.378H4.409a.378.378,0,0,1-.378-.378Zm1.638,4.661H4.409A.378.378,0,0,1,4.031,9.7V8.441a.378.378,0,0,1,.378-.378h1.26a.378.378,0,0,1,.378.378V9.7A.378.378,0,0,1,5.669,10.078Zm2.394,5.039H6.047V12.472a.378.378,0,0,1,.378-.378h1.26a.378.378,0,0,1,.378.378ZM10.078,9.7a.378.378,0,0,1-.378.378H8.441A.378.378,0,0,1,8.063,9.7V8.441a.378.378,0,0,1,.378-.378H9.7a.378.378,0,0,1,.378.378Zm0-3.024a.378.378,0,0,1-.378.378H8.441a.378.378,0,0,1-.378-.378V5.417a.378.378,0,0,1,.378-.378H9.7a.378.378,0,0,1,.378.378Zm0-3.024a.378.378,0,0,1-.378.378H8.441a.378.378,0,0,1-.378-.378V2.394a.378.378,0,0,1,.378-.378H9.7a.378.378,0,0,1,.378.378Z"/></svg>